<!--?xml version="1.0" standalone="no"?-->
              <svg id="sw-js-blob-svg" viewBox="0 0 100 100" xmlns="http://www.w3.org/2000/svg" version="1.1">
                    <defs> 
                        <linearGradient id="sw-gradient" x1="0" x2="1" y1="1" y2="0">
                            <stop id="stop1" stop-color="rgba(114.371, 69.914, 255, 1)" offset="0%"></stop>
                            <stop id="stop2" stop-color="rgba(0, 57, 166, 1)" offset="100%"></stop>
                        </linearGradient>
                    </defs>
                <path fill="url(#sw-gradient)" d="M17,-22.8C22.2,-19.6,26.8,-14.9,26.6,-9.9C26.4,-5,21.4,0.2,19.5,6.4C17.5,12.6,18.6,19.8,15.8,26.6C13.1,33.4,6.5,39.7,0,39.7C-6.5,39.7,-13,33.2,-17.8,27.1C-22.7,21,-26,15.3,-26.9,9.5C-27.8,3.6,-26.4,-2.2,-24.7,-8.2C-23,-14.2,-21.1,-20.3,-16.9,-23.8C-12.8,-27.3,-6.4,-28.3,-0.2,-27.9C5.9,-27.6,11.8,-25.9,17,-22.8Z" width="100%" height="100%" transform="translate(50 50)" style="transition: all 0.3s;" stroke-width="0"></path>
              </svg>